<svg width="20" height="20" viewBox="0 0 20 20" fill="none" xmlns="http://www.w3.org/2000/svg">
<g clip-path="url(#clip0_529_3017)">
<path d="M9.99996 13.3334C11.8409 13.3334 13.3333 11.841 13.3333 10.0001C13.3333 8.15913 11.8409 6.66675 9.99996 6.66675C8.15901 6.66675 6.66663 8.15913 6.66663 10.0001C6.66663 11.841 8.15901 13.3334 9.99996 13.3334Z" fill="#FFD951"/>
<path d="M9.99996 13.3334C11.8409 13.3334 13.3333 11.841 13.3333 10.0001C13.3333 8.15913 11.8409 6.66675 9.99996 6.66675C8.15901 6.66675 6.66663 8.15913 6.66663 10.0001C6.66663 11.841 8.15901 13.3334 9.99996 13.3334Z" stroke="#333333" stroke-width="2" stroke-linecap="round" stroke-linejoin="round"/>
<path d="M2.5 10H3.33333M10 2.5V3.33333M16.6667 10H17.5M10 16.6667V17.5M4.66667 4.66667L5.25 5.25M15.3333 4.66667L14.75 5.25M14.75 14.75L15.3333 15.3333M5.25 14.75L4.66667 15.3333" stroke="#333333" stroke-width="2" stroke-linecap="round" stroke-linejoin="round"/>
</g>
<defs>
<clipPath id="clip0_529_3017">
<rect width="20" height="20" fill="white"/>
</clipPath>
</defs>
</svg>
