<svg width="20" height="20" viewBox="0 0 20 20" fill="none" xmlns="http://www.w3.org/2000/svg">
<g clip-path="url(#clip0_529_3026)">
<path d="M10 2.50007C10.11 2.50007 10.2192 2.50007 10.3275 2.50007C9.25697 3.49483 8.56885 4.83328 8.38276 6.28276C8.19668 7.73224 8.5244 9.2011 9.30897 10.434C10.0935 11.6669 11.2853 12.5859 12.6772 13.0313C14.0691 13.4767 15.573 13.4202 16.9275 12.8717C16.4065 14.1255 15.5548 15.2143 14.4635 16.022C13.3722 16.8296 12.0821 17.3259 10.7308 17.4579C9.3795 17.5899 8.01774 17.3525 6.79076 16.7712C5.56379 16.1899 4.51762 15.2865 3.76385 14.1572C3.01008 13.028 2.57698 11.7153 2.51076 10.3592C2.44454 9.00312 2.74767 7.65449 3.38783 6.45717C4.02799 5.25985 4.98116 4.25876 6.14566 3.56069C7.31016 2.86261 8.64231 2.49374 10 2.49341V2.50007Z" fill="#FFD951"/>
<path d="M9.99978 2.49983C10.1098 2.49983 10.2189 2.49983 10.3273 2.49983C9.25673 3.49459 8.5686 4.83303 8.38252 6.28251C8.19644 7.732 8.52416 9.20086 9.30872 10.4338C10.0933 11.6667 11.2851 12.5857 12.6769 13.0311C14.0688 13.4764 15.5727 13.42 16.9273 12.8715C16.4062 14.1252 15.5546 15.214 14.4633 16.0217C13.3719 16.8294 12.0818 17.3257 10.7305 17.4577C9.37925 17.5896 8.0175 17.3523 6.79052 16.771C5.56354 16.1897 4.51737 15.2862 3.7636 14.157C3.00983 13.0277 2.57674 11.7151 2.51051 10.359C2.44429 9.00288 2.74743 7.65424 3.38759 6.45693C4.02774 5.25961 4.98091 4.25852 6.14541 3.56044C7.30991 2.86237 8.64207 2.49349 9.99978 2.49316V2.49983Z" stroke="#333333" stroke-width="2" stroke-linecap="round" stroke-linejoin="round"/>
</g>
<defs>
<clipPath id="clip0_529_3026">
<rect width="20" height="20" fill="white"/>
</clipPath>
</defs>
</svg>
