<svg width="24" height="24" viewBox="0 0 24 24" fill="none" xmlns="http://www.w3.org/2000/svg">
<path d="M20 12.18C20 11.653 19.952 11.153 19.87 10.667H12.174V13.673H16.581C16.383 14.66 15.804 15.493 14.946 16.06V18.06H17.576C19.114 16.667 20 14.613 20 12.18Z" fill="#4285F4"/>
<path d="M12.174 19.9999C14.381 19.9999 16.226 19.2799 17.575 18.0599L14.945 16.0599C14.21 16.5399 13.277 16.8329 12.174 16.8329C10.042 16.8329 8.23703 15.4269 7.59003 13.5269H4.87903V15.5869C6.22003 18.1999 8.97903 19.9999 12.174 19.9999Z" fill="#34A853"/>
<path d="M7.59 13.5271C7.41675 13.0367 7.32881 12.5202 7.33 12.0001C7.33 11.4671 7.426 10.9531 7.59 10.4731V8.41309H4.879C4.30201 9.52075 4.0005 10.7512 4 12.0001C4 13.2931 4.32 14.5071 4.879 15.5871L7.589 13.5271H7.59Z" fill="#FBBC05"/>
<path d="M12.174 7.167C13.379 7.167 14.456 7.573 15.307 8.367L17.637 6.087C16.226 4.793 14.38 4 12.173 4C8.97903 4 6.22003 5.8 4.87903 8.413L7.58903 10.473C8.23703 8.573 10.042 7.167 12.174 7.167Z" fill="#EA4335"/>
</svg>
