<svg width="20" height="20" viewBox="0 0 20 20" fill="none" xmlns="http://www.w3.org/2000/svg">
<g clip-path="url(#clip0_529_2997)">
<path d="M2.5 10.8333H3.33333" stroke="#333333" stroke-width="2" stroke-linecap="round" stroke-linejoin="round"/>
<path d="M16.6666 10.8333H17.5" stroke="#333333" stroke-width="2" stroke-linecap="round" stroke-linejoin="round"/>
<path d="M4.66663 5.5L5.24996 6.08333" stroke="#333333" stroke-width="2" stroke-linecap="round" stroke-linejoin="round"/>
<path d="M15.3333 5.5L14.75 6.08333" stroke="#333333" stroke-width="2" stroke-linecap="round" stroke-linejoin="round"/>
<path d="M6.66663 10.8333C6.66663 9.94928 7.01782 9.10143 7.64294 8.47631C8.26806 7.85119 9.1159 7.5 9.99996 7.5C10.884 7.5 11.7319 7.85119 12.357 8.47631C12.9821 9.10143 13.3333 9.94928 13.3333 10.8333" fill="#FFD951"/>
<path d="M6.66663 10.8333C6.66663 9.94928 7.01782 9.10143 7.64294 8.47631C8.26806 7.85119 9.1159 7.5 9.99996 7.5C10.884 7.5 11.7319 7.85119 12.357 8.47631C12.9821 9.10143 13.3333 9.94928 13.3333 10.8333" stroke="#333333" stroke-width="2" stroke-linecap="round" stroke-linejoin="round"/>
<path d="M2.5 14.1667H17.5" stroke="#333333" stroke-width="2" stroke-linecap="round" stroke-linejoin="round"/>
<path d="M5.83337 16.6667H10" stroke="#333333" stroke-width="2" stroke-linecap="round" stroke-linejoin="round"/>
<path d="M13.3334 16.6667H14.1667" stroke="#333333" stroke-width="2" stroke-linecap="round" stroke-linejoin="round"/>
<path d="M10 4.16659V3.33325" stroke="#333333" stroke-width="2" stroke-linecap="round" stroke-linejoin="round"/>
</g>
<defs>
<clipPath id="clip0_529_2997">
<rect width="20" height="20" fill="white"/>
</clipPath>
</defs>
</svg>
