<svg width="36" height="36" viewBox="0 0 36 36" fill="none" xmlns="http://www.w3.org/2000/svg">
<rect width="36" height="36" rx="18" fill="#333333"/>
<path d="M25.005 14.2277C24.8945 14.3133 22.9449 15.4097 22.9449 17.8476C22.9449 20.6675 25.4257 21.6651 25.5 21.6898C25.4886 21.7506 25.1059 23.056 24.192 24.3862C23.3771 25.5567 22.526 26.7253 21.2314 26.7253C19.9367 26.7253 19.6035 25.9747 18.1089 25.9747C16.6524 25.9747 16.1345 26.75 14.9503 26.75C13.766 26.75 12.9397 25.6669 11.9896 24.3368C10.8891 22.7748 10 20.3483 10 18.0452C10 14.3513 12.4066 12.3922 14.7751 12.3922C16.0336 12.3922 17.0827 13.2168 17.8728 13.2168C18.6249 13.2168 19.7977 12.3428 21.2295 12.3428C21.7721 12.3428 23.7217 12.3922 25.005 14.2277ZM20.5497 10.7789C21.1419 10.0777 21.5607 9.10484 21.5607 8.13194C21.5607 7.99702 21.5493 7.86021 21.5246 7.75C20.5612 7.7861 19.415 8.39036 18.7239 9.19034C18.1812 9.80601 17.6748 10.7789 17.6748 11.7651C17.6748 11.9133 17.6995 12.0615 17.711 12.109C17.7719 12.1204 17.8709 12.1337 17.9699 12.1337C18.8343 12.1337 19.9214 11.5561 20.5497 10.7789Z" fill="white"/>
</svg>
