<svg width="36" height="36" viewBox="0 0 36 36" fill="none" xmlns="http://www.w3.org/2000/svg">
<rect width="36" height="36" rx="18" fill="#F7F7F7"/>
<path d="M25.9998 18.18C25.9998 17.653 25.9518 17.153 25.8698 16.667H18.1738V19.673H22.5808C22.3828 20.66 21.8038 21.493 20.9458 22.06V24.06H23.5758C25.1138 22.667 25.9998 20.613 25.9998 18.18Z" fill="#4285F4"/>
<path d="M18.1739 25.9999C20.3809 25.9999 22.2259 25.2799 23.5749 24.0599L20.9449 22.0599C20.2099 22.5399 19.2769 22.8329 18.1739 22.8329C16.0419 22.8329 14.2369 21.4269 13.5899 19.5269H10.8789V21.5869C12.2199 24.1999 14.9789 25.9999 18.1739 25.9999Z" fill="#34A853"/>
<path d="M13.59 19.5271C13.4168 19.0367 13.3288 18.5202 13.33 18.0001C13.33 17.4671 13.426 16.9531 13.59 16.4731V14.4131H10.879C10.302 15.5207 10.0005 16.7512 10 18.0001C10 19.2931 10.32 20.5071 10.879 21.5871L13.589 19.5271H13.59Z" fill="#FBBC05"/>
<path d="M18.1739 13.167C19.3789 13.167 20.4559 13.573 21.3069 14.367L23.6369 12.087C22.2259 10.793 20.3799 10 18.1729 10C14.9789 10 12.2199 11.8 10.8789 14.413L13.5889 16.473C14.2369 14.573 16.0419 13.167 18.1739 13.167Z" fill="#EA4335"/>
</svg>
