<svg width="36" height="36" viewBox="0 0 36 36" fill="none" xmlns="http://www.w3.org/2000/svg">
<rect width="36" height="36" rx="18" fill="#FFE600"/>
<path d="M18 10C13.305 10 9.5 12.869 9.5 16.408C9.5 18.697 11.091 20.707 13.484 21.838C13.354 22.268 12.647 24.6 12.62 24.784C12.62 24.784 12.602 24.921 12.696 24.974C12.759 25.004 12.832 25.008 12.898 24.985C13.166 24.949 16.004 23.047 16.495 22.719C16.993 22.785 17.496 22.818 18 22.817C22.695 22.817 26.5 19.947 26.5 16.408C26.5 12.868 22.695 10 18 10Z" fill="#391B1B"/>
</svg>
