<svg width="145" height="40" viewBox="0 0 145 40" fill="none" xmlns="http://www.w3.org/2000/svg">
<rect width="145" height="30" rx="4" fill="#FF5194"/>
<path d="M15.0899 11.4824V11.2637H17.8379V10.4023H15.1172V8.89844H14.0371V10.4023H11.2891V11.2637H14.0371V11.4824C14.0303 13.1094 12.7588 14.5176 10.9473 15.0645L11.4805 15.9121C12.9297 15.4473 14.0508 14.4492 14.5772 13.1641C15.1172 14.333 16.2041 15.2422 17.6055 15.6797L18.1114 14.832C16.3135 14.2988 15.0967 12.9727 15.0899 11.4824ZM12.7793 20.9434H20.4493V16.7188H12.7793V20.9434ZM13.8321 20.0684V17.5664H19.3829V20.0684H13.8321ZM19.3829 16.1582H20.4493V12.9453H22.2813V12.043H20.4493V8.95312H19.3829V16.1582ZM27.1475 10.9082V9.58203H26.0948V10.8672C26.0811 12.7402 24.8643 14.3467 23.0186 14.9961L23.6065 15.8848C25.0352 15.3242 26.1289 14.2031 26.6416 12.7676C27.1612 14.0664 28.2207 15.0986 29.5674 15.5977L30.1553 14.7363C28.3916 14.1279 27.1407 12.583 27.1475 10.9082ZM24.9053 17.6758H32.001V21.1074H33.0811V16.8145H24.9053V17.6758ZM29.294 12.4121H32.001V16.1445H33.0811V8.95312H32.001V11.5098H29.294V12.4121ZM39.1778 12.6855V11.0996H41.9121V10.2109H35.2949V11.0996H38.125V12.6855C38.1114 14.7568 36.6074 17.0674 34.8574 17.9219L35.5137 18.7695C36.874 18.0723 38.0908 16.5 38.6514 14.7158C39.1983 16.3633 40.3535 17.7988 41.7207 18.4688L42.336 17.6211C40.5723 16.7803 39.1641 14.6338 39.1778 12.6855ZM43.4024 21.1074H44.4688V14.791H46.5059V13.875H44.4688V8.95312H43.4024V21.1074ZM58.2354 14.5996H47.1065V15.4473H58.2354V14.5996ZM48.4463 17.2246H55.7744V18.2637H48.46V20.9434H57.2373V20.1641H49.5401V19.002H56.8408V16.418H48.4463V17.2246ZM48.5147 10.1016H55.7197V11.0996H48.5557V13.6836H57.0186V12.9043H49.6221V11.8379H56.7998V9.32227H48.5147V10.1016ZM73.7783 18.6738H68.7197V15.8848H67.667V18.6738H62.6494V19.5762H73.7783V18.6738ZM63.2646 15.4746L63.6885 16.3223C65.6436 15.9805 67.4277 14.9961 68.1934 13.4717C68.9727 14.9961 70.7568 15.9805 72.6982 16.3223L73.1084 15.4746C70.7773 15.0986 68.7471 13.6836 68.7471 11.7832H72.7119V10.8945H68.7197V9.21289H67.667V10.8945H63.6885V11.7832H67.6533C67.6396 13.6836 65.6094 15.0986 63.2646 15.4746ZM85.0976 8.95312H84.0723V13.8477H82.2812V9.22656H81.2969V20.4785H82.2812V14.7363H84.0723V21.1074H85.0976V8.95312ZM75.1582 18.0996H75.9375C77.8037 18.0928 79.041 18.0449 80.5039 17.7441L80.4082 16.8418C79.0547 17.1152 77.8994 17.1768 76.2246 17.1836V11.332H79.7109V10.4434H75.1582V18.0996ZM92.8349 11.0586H90.333V9.32227H89.2666V11.0586H86.7373V11.9336H92.8349V11.0586ZM87.1748 15.5156C87.1748 17.1494 88.2754 18.2979 89.7861 18.3047C91.3174 18.2979 92.4111 17.1494 92.4248 15.5156C92.4111 13.9023 91.3174 12.7607 89.7861 12.7539C88.2754 12.7607 87.1748 13.9023 87.1748 15.5156ZM88.1318 15.5156C88.1318 14.4492 88.8223 13.6699 89.7861 13.6562C90.7568 13.6699 91.4678 14.4492 91.4678 15.5156C91.4678 16.5957 90.7568 17.3682 89.7861 17.3613C88.8223 17.3682 88.1318 16.5957 88.1318 15.5156ZM93.4639 20.5059H94.4756V14.9688H96.0889V21.1074H97.1142V8.95312H96.0889V14.0801H94.4756V9.25391H93.4639V20.5059ZM104.961 10.6758V10.5938H108.844V9.71875H99.8613V10.5938H103.758V10.6758C103.751 12.3027 101.591 13.6836 99.4785 13.998L99.9023 14.8457C101.769 14.5244 103.621 13.5127 104.359 12.0498C105.098 13.5127 106.95 14.5244 108.844 14.8457L109.24 13.998C107.121 13.6836 104.954 12.3027 104.961 10.6758ZM98.8222 16.7734H103.812V21.1074H104.865V16.7734H109.896V15.8848H98.8222V16.7734ZM114.489 12.4121V10.1016H113.45V12.4531C113.45 14.5381 112.425 16.6914 110.743 17.6758L111.427 18.4824C112.644 17.7441 113.546 16.3496 113.99 14.7295C114.414 16.2129 115.255 17.5117 116.431 18.2227L117.046 17.3887C115.433 16.4316 114.489 14.3467 114.489 12.4121ZM115.706 14.2305H117.77V20.4922H118.782V9.21289H117.77V13.3145H115.706V14.2305ZM120.259 21.1074H121.298V8.95312H120.259V21.1074ZM134.066 18.6465H131.305V15.3379C132.31 14.7979 132.918 13.9365 132.918 12.8496C132.918 10.9697 131.072 9.73242 128.475 9.71875C125.877 9.73242 124.031 10.9697 124.031 12.8496C124.031 13.957 124.66 14.832 125.699 15.3721V18.6465H122.937V19.5488H134.066V18.6465ZM125.07 12.8496C125.063 11.4893 126.478 10.5938 128.475 10.6074C130.45 10.5938 131.879 11.4893 131.879 12.8496C131.879 14.21 130.45 15.1191 128.475 15.1191C126.478 15.1191 125.063 14.21 125.07 12.8496ZM126.752 18.6465V15.7617C127.271 15.8984 127.853 15.9668 128.475 15.9668C129.11 15.9668 129.698 15.8916 130.225 15.7549V18.6465H126.752Z" fill="white"/>
<path d="M72.866 38.5C72.4811 39.1667 71.5189 39.1667 71.134 38.5L65.9378 29.5C65.5529 28.8333 66.034 28 66.8038 28L77.1962 28C77.966 28 78.4471 28.8333 78.0622 29.5L72.866 38.5Z" fill="#FF5194"/>
</svg>
