<svg width="164" height="38" viewBox="0 0 164 38" fill="none" xmlns="http://www.w3.org/2000/svg">
<rect width="164" height="30" rx="4" fill="#FF5194"/>
<path d="M14.2007 9.89648C12.396 9.90332 11.1314 11.5508 11.1382 14.1348C11.1314 16.7256 12.396 18.3662 14.2007 18.3594C15.9918 18.3662 17.2632 16.7256 17.2769 14.1348C17.2632 11.5508 15.9918 9.90332 14.2007 9.89648ZM12.15 14.1348C12.1568 12.1592 12.9976 10.8604 14.2007 10.8535C15.4175 10.8604 16.2378 12.1592 16.2378 14.1348C16.2378 16.1104 15.4175 17.4092 14.2007 17.4023C12.9976 17.4092 12.1568 16.1104 12.15 14.1348ZM19.2867 21.1074H20.3531V14.7363H22.3902V13.8066H20.3531V8.95312H19.2867V21.1074ZM27.3794 11.209V10.6895H30.1822V9.81445H23.4556V10.6895H26.2994V11.209C26.2925 12.9316 25.0074 14.5176 23.1822 15.1602L23.7427 15.9941C25.1919 15.4746 26.3267 14.3809 26.8599 13C27.4136 14.2852 28.5347 15.2832 29.9498 15.7617L30.4966 14.9277C28.6783 14.333 27.3863 12.8428 27.3794 11.209ZM24.8638 17.8398H31.9732V21.1074H33.0396V16.9512H24.8638V17.8398ZM31.9732 16.3086H33.0396V8.95312H31.9732V16.3086ZM49.6216 14.7363H38.5337V15.6387H49.6216V14.7363ZM39.8736 18.8926C39.8667 20.3008 41.4458 21.0801 44.0708 21.0801C46.6753 21.0801 48.2408 20.3008 48.2544 18.8926C48.2408 17.498 46.6753 16.7051 44.0708 16.7051C41.4458 16.7051 39.8667 17.498 39.8736 18.8926ZM39.9419 13.5742H48.3228V12.6992H40.9947V10.3477H48.2408V9.44531H39.9419V13.5742ZM40.9673 18.8926C40.9536 18.0449 42.1226 17.5527 44.0708 17.5391C45.9986 17.5527 47.1675 18.0449 47.1743 18.8926C47.1675 19.7471 45.9986 20.2324 44.0708 20.2324C42.1226 20.2324 40.9536 19.7471 40.9673 18.8926ZM61.7066 15.6523H56.6616V14.3672H60.5308V13.5059H53.0933V12.207H60.271V9.26758H51.9859V10.1426H59.1909V11.4004H52.0269V14.3672H55.6089V15.6523H50.5777V16.541H61.7066V15.6523ZM51.8218 18.3457H59.2593V20.998H60.3394V17.4707H51.8218V18.3457ZM72.1509 8.9668H71.0845V18.0723H72.1509V13.875H73.9829V12.9727H72.1509V8.9668ZM62.6763 11.332H69.9224V10.457H66.8325V8.9668H65.7661V10.457H62.6763V11.332ZM63.3736 14.2715C63.3667 15.6387 64.5425 16.5205 66.2993 16.5137C68.0357 16.5205 69.2114 15.6387 69.2251 14.2715C69.2114 12.8906 68.0357 12.002 66.2993 12.002C64.5425 12.002 63.3667 12.8906 63.3736 14.2715ZM64.3989 14.2715C64.3921 13.4033 65.1509 12.8428 66.2993 12.8496C67.4341 12.8428 68.1997 13.4033 68.2134 14.2715C68.1997 15.126 67.4341 15.6797 66.2993 15.666C65.1509 15.6797 64.3921 15.126 64.3989 14.2715ZM64.5493 20.8477H72.7114V19.9453H65.6021V17.3477H64.5493V20.8477ZM82.2524 12.2207V10.0059H81.1997V12.2207C81.186 14.4424 79.7778 16.7734 78.0005 17.6484L78.6841 18.5098C80.0513 17.7783 81.1997 16.2402 81.7397 14.4492C82.2798 16.1377 83.4009 17.5801 84.7407 18.2773L85.397 17.416C83.6675 16.5684 82.2524 14.3604 82.2524 12.2207ZM86.5181 21.1074H87.5845V14.8184H89.6216V13.8887H87.5845V8.95312H86.5181V21.1074ZM99.7378 8.9668H98.6714V16.2129H99.7378V13H101.583V12.084H99.7378V8.9668ZM90.7554 10.5117H95.2124V12.1113H90.7827V15.5703H91.7261C93.9888 15.5703 95.6157 15.502 97.564 15.1602L97.4546 14.2988C95.561 14.6064 93.9956 14.6748 91.8354 14.668V12.9453H96.2651V9.62305H90.7554V10.5117ZM92.0405 20.9434H99.7378V16.8145H92.0405V20.9434ZM93.0933 20.0684V17.6484H98.6987V20.0684H93.0933ZM112.315 8.95312H111.235V21.1348H112.315V8.95312ZM102.745 14.1348C102.751 16.7256 104.037 18.3662 105.848 18.3594C107.653 18.3662 108.958 16.7256 108.952 14.1348C108.958 11.5508 107.653 9.90332 105.848 9.89648C104.037 9.90332 102.751 11.5508 102.745 14.1348ZM103.784 14.1348C103.784 12.1592 104.631 10.8604 105.848 10.8535C107.072 10.8604 107.913 12.1592 107.913 14.1348C107.913 16.1104 107.072 17.4092 105.848 17.4023C104.631 17.4092 103.784 16.1104 103.784 14.1348ZM120.243 16.0898H119.231V20.9434H123.456V16.0898H122.457V17.6074H120.243V16.0898ZM118.014 12.2891C118.007 13.957 119.32 15.0918 121.172 15.0918C122.82 15.0918 124.071 14.1484 124.283 12.7129H126.819V15.3926H127.899V8.95312H126.819V11.8242H124.276C124.043 10.4229 122.806 9.5 121.172 9.5C119.32 9.5 118.007 10.6279 118.014 12.2891ZM119.04 12.2891C119.04 11.1816 119.921 10.4023 121.172 10.4023C122.396 10.4023 123.278 11.1816 123.278 12.2891C123.278 13.4033 122.396 14.1963 121.172 14.2031C119.921 14.1963 119.04 13.4033 119.04 12.2891ZM120.243 20.0957V18.4277H122.457V20.0957H120.243ZM123.62 20.2188L124.18 21.0391C125.253 20.5811 125.999 19.7197 126.381 18.7285C126.757 19.7334 127.489 20.5947 128.61 21.0391L129.17 20.2188C127.687 19.6719 126.915 18.3252 126.928 17.0469V16.0078H125.862V17.0469C125.855 18.2773 125.082 19.6104 123.62 20.2188ZM133.148 9.89648C131.35 9.90332 130.092 11.5508 130.099 14.1348C130.092 16.7256 131.35 18.3662 133.148 18.3594C134.843 18.3662 136.06 16.876 136.176 14.4902H138.89V21.1348H139.957V8.95312H138.89V13.6016H136.163C135.998 11.3252 134.802 9.90332 133.148 9.89648ZM131.124 14.1348C131.131 12.1592 131.952 10.8604 133.148 10.8535C134.337 10.8604 135.171 12.1592 135.171 14.1348C135.171 16.1104 134.337 17.4092 133.148 17.4023C131.952 17.4092 131.131 16.1104 131.124 14.1348ZM153.067 18.6465H150.305V15.3379C151.31 14.7979 151.918 13.9365 151.918 12.8496C151.918 10.9697 150.073 9.73242 147.475 9.71875C144.877 9.73242 143.032 10.9697 143.032 12.8496C143.032 13.957 143.661 14.832 144.7 15.3721V18.6465H141.938V19.5488H153.067V18.6465ZM144.071 12.8496C144.064 11.4893 145.479 10.5938 147.475 10.6074C149.451 10.5938 150.879 11.4893 150.879 12.8496C150.879 14.21 149.451 15.1191 147.475 15.1191C145.479 15.1191 144.064 14.21 144.071 12.8496ZM145.752 18.6465V15.7617C146.272 15.8984 146.853 15.9668 147.475 15.9668C148.111 15.9668 148.699 15.8916 149.225 15.7549V18.6465H145.752Z" fill="white"/>
<path d="M82.866 36.5C82.4811 37.1667 81.5189 37.1667 81.134 36.5L75.9378 27.5C75.5529 26.8333 76.034 26 76.8038 26L87.1962 26C87.966 26 88.4471 26.8333 88.0622 27.5L82.866 36.5Z" fill="#FF5194"/>
</svg>
