<svg width="24" height="24" viewBox="0 0 24 24" fill="none" xmlns="http://www.w3.org/2000/svg">
<path d="M19.9998 12.18C19.9998 11.653 19.9518 11.153 19.8698 10.667H12.1738V13.673H16.5808C16.3828 14.66 15.8038 15.493 14.9458 16.06V18.06H17.5758C19.1138 16.667 19.9998 14.613 19.9998 12.18Z" fill="#4285F4"/>
<path d="M12.1739 19.9999C14.3809 19.9999 16.2259 19.2799 17.5749 18.0599L14.9449 16.0599C14.2099 16.5399 13.2769 16.8329 12.1739 16.8329C10.0419 16.8329 8.23691 15.4269 7.58991 13.5269H4.87891V15.5869C6.21991 18.1999 8.97891 19.9999 12.1739 19.9999Z" fill="#34A853"/>
<path d="M7.59 13.5271C7.41675 13.0367 7.32881 12.5202 7.33 12.0001C7.33 11.4671 7.426 10.9531 7.59 10.4731V8.41309H4.879C4.30201 9.52075 4.0005 10.7512 4 12.0001C4 13.2931 4.32 14.5071 4.879 15.5871L7.589 13.5271H7.59Z" fill="#FBBC05"/>
<path d="M12.1739 7.167C13.3789 7.167 14.4559 7.573 15.3069 8.367L17.6369 6.087C16.2259 4.793 14.3799 4 12.1729 4C8.97891 4 6.21991 5.8 4.87891 8.413L7.58891 10.473C8.23691 8.573 10.0419 7.167 12.1739 7.167Z" fill="#EA4335"/>
</svg>
