<svg width="102" height="16" viewBox="0 0 102 16" fill="none" xmlns="http://www.w3.org/2000/svg">
<path d="M0.308594 0.859375V15H2.76953V5.23438H2.88672L6.8125 14.9609H8.62891L12.5547 5.27344H12.6914V15H15.1328V0.859375H12.0078L7.80859 11.1328H7.63281L3.43359 0.859375H0.308594ZM17.0845 12.0117C17.0845 14.1113 18.6177 15.2148 20.6392 15.2148C22.3091 15.2148 23.2955 14.4336 23.7642 13.5352H23.8423V15H26.2252V7.91016C26.2252 5.08789 23.9009 4.25781 21.8892 4.25781C19.233 4.25781 17.6119 5.61523 17.4361 7.42188H19.8384C20.0338 6.66016 20.7173 6.15234 21.8306 6.15234C23.0709 6.15234 23.7447 6.75781 23.7447 7.8125L23.7545 8.66211C23.2857 8.68164 21.772 8.75 21.0298 8.80859C19.067 8.93555 17.0845 9.62891 17.0845 12.0117ZM19.4869 11.9922C19.4869 11.0645 20.2388 10.5664 21.4205 10.4688C21.9185 10.4297 23.3052 10.3418 23.7545 10.3223L23.7642 11.1914C23.7642 12.3828 22.7974 13.3789 21.2838 13.3789C20.2388 13.3789 19.4869 12.9102 19.4869 11.9922ZM31.0089 8.78906C31.0089 7.24609 31.9366 6.35742 33.255 6.36719C34.5538 6.35742 35.3253 7.20703 35.3253 8.63281V15H37.8058V8.24219C37.8155 5.70312 36.3702 4.25781 34.173 4.25781C32.5909 4.25781 31.507 5.00977 31.0284 6.19141H30.8917V4.39453H28.5089V15H31.0089V8.78906ZM42.6286 8.78906C42.6286 7.24609 43.5563 6.35742 44.8747 6.36719C46.1735 6.35742 46.945 7.20703 46.945 8.63281V15H49.4255V8.24219C49.4352 5.70312 47.9899 4.25781 45.7927 4.25781C44.2106 4.25781 43.1266 5.00977 42.6481 6.19141H42.5114V4.39453H40.1286V15H42.6286V8.78906ZM51.26 12.0117C51.26 14.1113 52.7932 15.2148 54.8147 15.2148C56.4846 15.2148 57.4709 14.4336 57.9397 13.5352H58.0178V15H60.4006V7.91016C60.4006 5.08789 58.0764 4.25781 56.0647 4.25781C53.4084 4.25781 51.7873 5.61523 51.6116 7.42188H54.0139C54.2092 6.66016 54.8928 6.15234 56.0061 6.15234C57.2463 6.15234 57.9202 6.75781 57.9202 7.8125L57.9299 8.66211C57.4612 8.68164 55.9475 8.75 55.2053 8.80859C53.2424 8.93555 51.26 9.62891 51.26 12.0117ZM53.6623 11.9922C53.6623 11.0645 54.4143 10.5664 55.5959 10.4688C56.094 10.4297 57.4807 10.3418 57.9299 10.3223L57.9397 11.1914C57.9397 12.3828 56.9729 13.3789 55.4592 13.3789C54.4143 13.3789 53.6623 12.9102 53.6623 11.9922ZM67.9773 4.39453H65.8875V1.85547H63.407V4.39453H61.8836V6.30859H63.407V12.2266C63.3875 14.2188 64.8328 15.1465 66.7078 15.1367C67.3426 15.1465 67.8211 15.0879 68.1141 15.0391V13.0078C67.8016 13.0273 67.3133 13.0566 67.0203 13.0469C66.3953 13.0371 65.8875 12.832 65.8875 11.8164V6.30859H67.9773V4.39453ZM69.8314 15H72.3314V4.39453H69.8314V15ZM69.6556 1.52344C69.6556 2.27539 70.3099 2.88086 71.1009 2.89062C71.892 2.88086 72.5462 2.27539 72.5462 1.52344C72.5462 0.78125 71.892 0.175781 71.1009 0.175781C70.3099 0.175781 69.6556 0.78125 69.6556 1.52344ZM74.6542 15H77.1542V8.55469C77.1542 7.23633 78.0331 6.34766 79.1073 6.34766C80.1718 6.34766 80.8945 7.06055 80.9042 8.16406V15H83.3261V8.37891C83.3261 7.17773 84.039 6.34766 85.2597 6.34766C86.2753 6.34766 87.0761 6.94336 87.0761 8.26172V15H89.5566V7.87109C89.5663 5.50781 88.1991 4.25781 86.2558 4.25781C84.7128 4.25781 83.5312 5.01953 83.0722 6.19141H82.955C82.5546 4.99023 81.5195 4.25781 80.0839 4.25781C78.6777 4.25781 77.6132 4.98047 77.1738 6.19141H77.037V4.39453H74.6542V15ZM96.5864 15.2148C99.0473 15.2148 100.747 14.0039 101.196 12.168H98.7544C98.4321 12.8027 97.6997 13.2715 96.6059 13.2617C94.9946 13.2715 93.9302 12.1973 93.8911 10.3906H101.293V9.60938C101.293 5.88867 99.0473 4.25781 96.4497 4.25781C93.4223 4.25781 91.4302 6.48438 91.4302 9.76562C91.4302 13.0859 93.393 15.2148 96.5864 15.2148ZM93.9009 8.69141C93.9887 7.34375 94.9946 6.19141 96.4887 6.19141C97.9243 6.19141 98.9009 7.24609 98.9106 8.69141H93.9009Z" fill="#333333"/>
</svg>
