<svg width="335" height="137" viewBox="0 0 335 137" fill="none" xmlns="http://www.w3.org/2000/svg">
<rect x="0.5" y="0.5" width="334" height="144" rx="5.5" fill="#F7F7F7" stroke="#EEEEEE"/>
<g clip-path="url(#clip0_1_491)">
<path d="M306 83L310 87L314 83" stroke="#333333" stroke-width="2" stroke-linecap="round" stroke-linejoin="round"/>
</g>
<rect x="273.5" y="12.5" width="44" height="33" rx="5.5" fill="white"/>
<path d="M293.511 22.9258H292.212V31.1699H293.511V27.6289H295.261V26.5625H293.511V22.9258ZM283.791 29.8027L283.927 30.8418C286.087 30.8418 288.993 30.8213 291.625 30.3633L291.515 29.4336C290.49 29.584 289.382 29.6729 288.289 29.7275V28.9482C289.669 28.7842 290.538 28.1279 290.544 27.1504C290.538 26.0293 289.389 25.332 287.632 25.3457C285.875 25.332 284.707 26.0293 284.72 27.1504C284.707 28.1348 285.595 28.791 286.99 28.9482V29.7754C285.841 29.8027 284.741 29.8027 283.791 29.8027ZM284.105 24.9355H291.173V23.9648H288.289V22.8164H286.99V23.9648H284.105V24.9355ZM285.322 32.7559H292.212V35.1621H293.511V31.7441H285.322V32.7559ZM285.951 27.1504C285.951 26.5625 286.586 26.2207 287.632 26.2344C288.665 26.2207 289.307 26.5625 289.3 27.1504C289.307 27.7246 288.665 28.1006 287.632 28.0938C286.586 28.1006 285.951 27.7246 285.951 27.1504ZM306.143 22.9121H304.844V26.0293H302.561V27.0957H304.844V30.1992H306.143V22.9121ZM295.93 29.0918L296.614 30.1309C298.077 29.5908 299.15 28.4902 299.683 27.123C300.216 28.333 301.228 29.3174 302.602 29.7891L303.272 28.7637C301.419 28.1348 300.312 26.624 300.319 25.0723V24.8125H302.944V23.7598H296.34V24.8125H298.993V25.0859C299 26.7744 297.831 28.4287 295.93 29.0918ZM297.899 32.8516C297.892 34.3076 299.464 35.1553 302.042 35.1621C304.605 35.1553 306.177 34.3076 306.184 32.8516C306.177 31.3955 304.605 30.5479 302.042 30.541C299.464 30.5479 297.892 31.3955 297.899 32.8516ZM299.184 32.8516C299.177 32.0176 300.244 31.5459 302.042 31.5527C303.826 31.5459 304.892 32.0176 304.899 32.8516C304.892 33.6787 303.826 34.1504 302.042 34.1367C300.244 34.1504 299.177 33.6787 299.184 32.8516Z" fill="#333333"/>
<rect x="273.5" y="12.5" width="44" height="33" rx="5.5" stroke="#DDDDDD"/>
<rect x="23" y="58" width="295" height="1" fill="#EEEEEE"/>
<path d="M58.2812 35.1562C61.1094 35.1562 62.8281 33.0625 62.8281 29.3438C62.8281 25.6484 61.1016 23.5312 58.2812 23.5312C55.4609 23.5312 53.7344 25.6484 53.7344 29.3438C53.7344 33.0469 55.4453 35.1562 58.2812 35.1562ZM56.1406 29.3438C56.1406 26.7578 56.9766 25.4609 58.2812 25.4531C59.5859 25.4609 60.4297 26.7578 60.4219 29.3438C60.4297 31.9531 59.5938 33.2188 58.2812 33.2188C56.9688 33.2188 56.125 31.9531 56.1406 29.3438ZM68.5301 23.5312C65.9754 23.5234 64.2489 25.1797 64.2489 27.4531C64.2645 29.5625 65.7645 31.0938 67.7957 31.0938C69.0536 31.0938 70.1707 30.5 70.702 29.5H70.7957C70.7879 31.7578 69.9754 33.1406 68.4364 33.1406C67.5301 33.1406 66.8817 32.6484 66.6864 31.8125H64.3739C64.6004 33.7266 66.1629 35.1562 68.4364 35.1562C71.2801 35.1562 73.1004 32.8906 73.0926 29.0469C73.0926 24.9375 70.8739 23.5391 68.5301 23.5312ZM66.5457 27.3906C66.5301 26.2656 67.3895 25.3828 68.5457 25.375C69.702 25.3828 70.5457 26.2969 70.5614 27.375C70.5614 28.4609 69.6786 29.375 68.5301 29.375C67.3661 29.375 66.5457 28.5078 66.5457 27.3906ZM75.5446 35.1406C76.2399 35.1406 76.8415 34.5547 76.8415 33.8281C76.8415 33.1094 76.2399 32.5234 75.5446 32.5312C74.8102 32.5234 74.2165 33.1094 74.2321 33.8281C74.2165 34.5547 74.8102 35.1406 75.5446 35.1406ZM82.5591 35.1562C85.3873 35.1562 87.106 33.0625 87.106 29.3438C87.106 25.6484 85.3794 23.5312 82.5591 23.5312C79.7388 23.5312 78.0123 25.6484 78.0123 29.3438C78.0123 33.0469 79.7232 35.1562 82.5591 35.1562ZM80.4185 29.3438C80.4185 26.7578 81.2544 25.4609 82.5591 25.4531C83.8638 25.4609 84.7076 26.7578 84.6998 29.3438C84.7076 31.9531 83.8716 33.2188 82.5591 33.2188C81.2466 33.2188 80.4029 31.9531 80.4185 29.3438ZM88.808 35H91.2455L96.0111 25.6406V23.6875H88.0267V25.6094H93.5736V25.6875L88.808 35ZM97.885 30.6875C97.8928 33.6328 98.7991 36.0781 100.291 38.1875H102.494C101.416 36.6172 100.291 33.4922 100.291 30.6875C100.291 27.8906 101.416 24.7578 102.494 23.2031H100.291C98.7991 25.3047 97.8928 27.75 97.885 30.6875ZM110.79 23.3281V22.6406H108.696V23.3281C108.689 25.0078 106.978 26.8594 103.743 27.2656L104.54 28.875C106.993 28.5156 108.806 27.3594 109.743 25.8281C110.673 27.3672 112.493 28.5156 114.978 28.875L115.759 27.2656C112.501 26.8594 110.782 25.0078 110.79 23.3281ZM103.243 31.5781H108.712V36.4375H110.681V31.5781H116.212V29.9531H103.243V31.5781ZM121.586 30.6875C121.578 27.75 120.672 25.3047 119.18 23.2031H116.977C118.055 24.7578 119.18 27.8906 119.18 30.6875C119.18 33.4922 118.055 36.6172 116.977 38.1875H119.18C120.672 36.0781 121.578 33.6328 121.586 30.6875ZM132.193 23.6875H129.974L127.177 25.4688V27.5469L129.771 25.9219H129.834V35H132.193V23.6875ZM138.895 23.5312C136.34 23.5234 134.614 25.1797 134.614 27.4531C134.629 29.5625 136.129 31.0938 138.161 31.0938C139.418 31.0938 140.536 30.5 141.067 29.5H141.161C141.153 31.7578 140.34 33.1406 138.801 33.1406C137.895 33.1406 137.247 32.6484 137.051 31.8125H134.739C134.965 33.7266 136.528 35.1562 138.801 35.1562C141.645 35.1562 143.465 32.8906 143.457 29.0469C143.457 24.9375 141.239 23.5391 138.895 23.5312ZM136.911 27.3906C136.895 26.2656 137.754 25.3828 138.911 25.375C140.067 25.3828 140.911 26.2969 140.926 27.375C140.926 28.4609 140.043 29.375 138.895 29.375C137.731 29.375 136.911 28.5078 136.911 27.3906ZM146.378 35.1406C147.074 35.1406 147.675 34.5547 147.675 33.8281C147.675 33.1094 147.074 32.5234 146.378 32.5312C145.644 32.5234 145.05 33.1094 145.066 33.8281C145.05 34.5547 145.644 35.1406 146.378 35.1406ZM145.066 27.875C145.05 28.6016 145.644 29.1875 146.378 29.1875C147.074 29.1875 147.675 28.6016 147.675 27.875C147.675 27.1562 147.074 26.5703 146.378 26.5781C145.644 26.5703 145.05 27.1562 145.066 27.875ZM153.658 35.1562C156.213 35.1562 158.049 33.7656 158.033 31.8281C158.049 30.4141 157.135 29.4062 155.471 29.2031V29.1094C156.737 28.8828 157.619 27.9844 157.612 26.7188C157.619 24.9297 156.049 23.5312 153.69 23.5312C151.369 23.5312 149.619 24.8828 149.58 26.8281H151.83C151.869 25.9609 152.69 25.3984 153.69 25.4062C154.69 25.3984 155.354 25.9922 155.346 26.8594C155.354 27.75 154.572 28.3594 153.455 28.3594H152.408V30.0938H153.455C154.783 30.1016 155.604 30.75 155.596 31.6719C155.604 32.5859 154.799 33.2109 153.674 33.2188C152.58 33.2109 151.76 32.6562 151.721 31.8125H149.346C149.393 33.7891 151.174 35.1562 153.658 35.1562ZM164.032 35.1562C166.86 35.1562 168.579 33.0625 168.579 29.3438C168.579 25.6484 166.853 23.5312 164.032 23.5312C161.212 23.5312 159.485 25.6484 159.485 29.3438C159.485 33.0469 161.196 35.1562 164.032 35.1562ZM161.892 29.3438C161.892 26.7578 162.728 25.4609 164.032 25.4531C165.337 25.4609 166.181 26.7578 166.173 29.3438C166.181 31.9531 165.345 33.2188 164.032 33.2188C162.72 33.2188 161.876 31.9531 161.892 29.3438ZM174.389 29.9844V31.8906C174.905 31.3281 175.553 31.0391 176.28 31.0312C177.561 31.0391 178.655 31.9219 179.936 31.9219C180.671 31.9219 181.342 31.625 181.874 31.0625V29.1562C181.358 29.7266 180.71 30.0156 179.983 30.0156C178.694 30.0156 177.608 29.1328 176.327 29.125C175.592 29.1328 174.921 29.4219 174.389 29.9844ZM187.84 35H195.934V33.0625H191.106V33L192.825 31.3281C195.153 29.2188 195.778 28.1641 195.778 26.875C195.778 24.9141 194.168 23.5312 191.747 23.5312C189.364 23.5312 187.723 24.9453 187.731 27.1562H189.965C189.957 26.0703 190.653 25.3984 191.715 25.4062C192.754 25.3984 193.512 26.0234 193.512 27.0312C193.512 27.9297 192.942 28.5547 191.887 29.5625L187.825 33.2969L187.84 35ZM202.433 23.6875H200.214L197.417 25.4688V27.5469L200.011 25.9219H200.074V35H202.433V23.6875ZM206.385 35.1406C207.08 35.1406 207.682 34.5547 207.682 33.8281C207.682 33.1094 207.08 32.5234 206.385 32.5312C205.65 32.5234 205.057 33.1094 205.072 33.8281C205.057 34.5547 205.65 35.1406 206.385 35.1406ZM205.072 27.875C205.057 28.6016 205.65 29.1875 206.385 29.1875C207.08 29.1875 207.682 28.6016 207.682 27.875C207.682 27.1562 207.08 26.5703 206.385 26.5781C205.65 26.5703 205.057 27.1562 205.072 27.875ZM213.868 35.1562C216.696 35.1562 218.415 33.0625 218.415 29.3438C218.415 25.6484 216.688 23.5312 213.868 23.5312C211.048 23.5312 209.321 25.6484 209.321 29.3438C209.321 33.0469 211.032 35.1562 213.868 35.1562ZM211.727 29.3438C211.727 26.7578 212.563 25.4609 213.868 25.4531C215.173 25.4609 216.017 26.7578 216.009 29.3438C216.017 31.9531 215.181 33.2188 213.868 33.2188C212.556 33.2188 211.712 31.9531 211.727 29.3438ZM224.383 35.1562C227.211 35.1562 228.93 33.0625 228.93 29.3438C228.93 25.6484 227.203 23.5312 224.383 23.5312C221.562 23.5312 219.836 25.6484 219.836 29.3438C219.836 33.0469 221.547 35.1562 224.383 35.1562ZM222.242 29.3438C222.242 26.7578 223.078 25.4609 224.383 25.4531C225.687 25.4609 226.531 26.7578 226.523 29.3438C226.531 31.9531 225.695 33.2188 224.383 33.2188C223.07 33.2188 222.226 31.9531 222.242 29.3438Z" fill="#333333"/>
<path d="M36.5664 85.2559H31.5488V83.7383H30.4961V85.2559H25.4922V86.1445H36.5664V85.2559ZM26.1348 83.5059L26.4766 84.3398C28.4863 84.1279 30.2842 83.4033 31.0293 82.1797C31.7676 83.4033 33.5723 84.1279 35.582 84.3398L35.9102 83.5059C33.6406 83.2939 31.7061 82.3711 31.6172 81.0176H35.4453V80.1426H31.5488V78.9258H30.4961V80.1426H26.6406V81.0176H30.4346C30.3389 82.3711 28.4111 83.2939 26.1348 83.5059ZM26.832 89.0703C26.8252 90.376 28.3838 91.0801 31.0293 91.0801C33.6611 91.0801 35.1992 90.376 35.2129 89.0703C35.1992 87.7646 33.6611 87.0605 31.0293 87.0605C28.3838 87.0605 26.8252 87.7646 26.832 89.0703ZM27.9258 89.0703C27.9121 88.3047 29.0605 87.874 31.0293 87.8672C32.9775 87.874 34.126 88.3047 34.1328 89.0703C34.126 89.8359 32.9775 90.2598 31.0293 90.2461C29.0605 90.2598 27.9121 89.8359 27.9258 89.0703ZM44.6855 90.1367C46.6611 90.1367 48.0967 88.7559 48.1035 86.8418C48.0967 84.9141 46.709 83.5195 44.8223 83.5195C44.125 83.5195 43.4619 83.752 43.0176 84.0938H42.9219L43.291 81.1953H47.625V80.1016H42.2656L41.5683 85.5156H42.7578C43.1201 84.873 43.7695 84.6133 44.6035 84.627C45.9365 84.6338 46.9004 85.584 46.9004 86.8691C46.9004 88.1133 45.9707 89.0498 44.6855 89.0566C43.6123 89.0498 42.751 88.3936 42.6621 87.5117H41.4726C41.5478 89.0361 42.9014 90.1367 44.6855 90.1367ZM59.4092 78.9531H58.3291V80.9355H55.4853V79.8828H49.9072V85.2832H55.4853V84.2441H58.3291V86.1582H59.4092V78.9531ZM50.9736 84.4082V80.7578H54.4326V84.4082H50.9736ZM51.3017 88.8105C51.2949 90.2598 52.8467 91.0801 55.376 91.0801C57.8984 91.0801 59.4502 90.2598 59.4502 88.8105C59.4502 87.3477 57.8984 86.5068 55.376 86.5137C52.8467 86.5068 51.2949 87.3477 51.3017 88.8105ZM52.3681 88.8105C52.3613 87.8945 53.5097 87.3613 55.376 87.3477C57.2353 87.3613 58.3838 87.8945 58.3838 88.8105C58.3838 89.6924 57.2353 90.2324 55.376 90.2324C53.5097 90.2324 52.3613 89.6924 52.3681 88.8105ZM55.4853 83.3418V81.8242H58.3291V83.3418H55.4853Z" fill="#333333"/>
<path d="M33.5684 111.967H32.4883V113.867H29.3301C28.7627 113.163 27.874 112.739 26.8418 112.732C25.0234 112.739 23.6768 113.997 23.6836 115.781C23.6768 117.559 25.0234 118.816 26.8418 118.816C27.8809 118.816 28.7832 118.386 29.3438 117.668H32.4883V120.949H33.5684V111.967ZM24.709 115.781C24.709 114.571 25.5977 113.696 26.8418 113.689C28.0381 113.696 28.9473 114.571 28.9473 115.781C28.9473 116.998 28.0381 117.866 26.8418 117.859C25.5977 117.866 24.709 116.998 24.709 115.781ZM25.7617 123.848H33.9102V122.945H26.8418V120.006H25.7617V123.848ZM29.8154 114.756H32.4883V116.779H29.8223C29.9248 116.472 29.9863 116.137 29.9863 115.781C29.9863 115.412 29.9248 115.07 29.8154 114.756ZM46.6787 121.66H41.6064V119.035H45.3115V112.814H44.2588V115.016H37.9424V112.814H36.8623V119.035H40.5537V121.66H35.5498V122.549H46.6787V121.66ZM37.9424 118.16V115.891H44.2588V118.16H37.9424ZM57.0137 111.953H55.9473V124.135H57.0137V117.695H59.0508V116.793H57.0137V111.953ZM48.0859 113.977H52.543V116.547H48.1133V121.195H49.084C51.4287 121.182 53.0488 121.093 54.9629 120.744L54.8535 119.855C53.0146 120.197 51.4355 120.286 49.1797 120.279V117.436H53.6094V113.088H48.0859V113.977Z" fill="#999999"/>
<path d="M77.6074 118.885H66.4785V119.773H69.3633V124.107H70.4707V119.773H73.5879V124.107H74.668V119.773H77.6074V118.885ZM67.7363 115.098C67.7432 116.718 69.459 117.729 72.0156 117.723C74.5654 117.729 76.2949 116.718 76.2949 115.098C76.2949 113.478 74.5654 112.452 72.0156 112.445C69.459 112.452 67.7432 113.478 67.7363 115.098ZM68.8438 115.098C68.8301 114.018 70.1221 113.32 72.0156 113.32C73.9092 113.32 75.1943 114.018 75.2012 115.098C75.1943 116.171 73.9092 116.861 72.0156 116.861C70.1221 116.861 68.8301 116.171 68.8438 115.098ZM84.6611 113.184H79.0557V121.018H84.6611V113.184ZM80.0947 120.143V114.045H83.5947V120.143H80.0947ZM86.8896 124.107H87.956V117.736H89.9932V116.807H87.956V111.953H86.8896V124.107ZM100.643 111.953H99.5762V124.135H100.643V111.953ZM91.291 113.977H95.8711V116.533H91.3183V121.182H92.3301C94.4287 121.182 96.2744 121.093 98.5098 120.744L98.4004 119.842C96.2265 120.19 94.4287 120.286 92.4121 120.279V117.408H96.9512V113.088H91.291V113.977Z" fill="#999999"/>
<path d="M119.514 111.953H118.434V124.135H119.514V111.953ZM109.943 117.135C109.95 119.726 111.235 121.366 113.047 121.359C114.852 121.366 116.157 119.726 116.15 117.135C116.157 114.551 114.852 112.903 113.047 112.896C111.235 112.903 109.95 114.551 109.943 117.135ZM110.982 117.135C110.982 115.159 111.83 113.86 113.047 113.854C114.271 113.86 115.111 115.159 115.111 117.135C115.111 119.11 114.271 120.409 113.047 120.402C111.83 120.409 110.982 119.11 110.982 117.135ZM132.925 116.807H130.956V111.953H129.89V124.107H130.956V117.709H132.925V116.807ZM122.056 121.018H123.026C124.865 121.018 126.752 120.895 128.851 120.471L128.714 119.555C126.711 119.979 124.899 120.115 123.122 120.115V113.156H122.056V121.018ZM144.682 118.037H139.678V116.684H143.232V112.213H142.166V113.607H136.15V112.213H135.084V116.684H138.611V118.037H133.607V118.926H144.682V118.037ZM134.961 123.943H143.328V120.061H134.961V123.943ZM136.027 123.068V120.908H142.275V123.068H136.027ZM136.15 115.822V114.428H142.166V115.822H136.15Z" fill="#999999"/>
<path d="M156.676 113.867V112.65H155.609V113.908C155.596 115.795 154.352 117.408 152.479 118.064L153.066 118.939C154.536 118.386 155.644 117.258 156.163 115.802C156.689 117.08 157.742 118.071 159.082 118.57L159.684 117.736C157.899 117.128 156.662 115.604 156.676 113.867ZM154.461 121.811C154.454 123.26 156.006 124.08 158.535 124.08C161.058 124.08 162.609 123.26 162.609 121.811C162.609 120.348 161.058 119.507 158.535 119.514C156.006 119.507 154.454 120.348 154.461 121.811ZM155.527 121.811C155.521 120.901 156.669 120.361 158.535 120.361C160.395 120.361 161.543 120.901 161.543 121.811C161.543 122.692 160.395 123.226 158.535 123.219C156.669 123.226 155.521 122.692 155.527 121.811ZM158.781 115.453H161.488V119.158H162.568V111.953H161.488V114.564H158.781V115.453ZM174.585 112.65H165.589V113.539H167.476V116.875H165.63V117.736H174.544V116.875H172.712V113.539H174.585V112.65ZM164.536 120.061H169.554V124.107H170.606V120.061H175.665V119.158H164.536V120.061ZM168.542 116.875V113.539H171.659V116.875H168.542ZM187.723 118.229H176.594V119.117H187.723V118.229ZM178.002 113.115H185.207V114.318H178.043V117.176H186.547V116.342H179.109V115.125H186.287V112.254H178.002V113.115ZM178.111 123.943H186.287V120.225H178.111V123.943ZM179.164 123.068V121.1H185.234V123.068H179.164Z" fill="#999999"/>
<path d="M205.568 111.967H204.488V115.33H201.986V116.219H204.488V120.881H205.568V111.967ZM195.547 118.447L196.107 119.322C197.55 118.782 198.671 117.668 199.197 116.26C199.724 117.518 200.783 118.536 202.15 119.035L202.711 118.174C200.934 117.565 199.717 116.041 199.717 114.469V113.84H202.438V112.951H195.889V113.84H198.637V114.469C198.637 116.212 197.338 117.818 195.547 118.447ZM197.762 123.848H205.91V122.945H198.842V120.074H197.762V123.848ZM216.956 111.953H215.89V124.107H216.956V117.859H218.993V116.971H216.956V111.953ZM207.481 114.797H214.714V113.908H211.679V112.104H210.612V113.908H207.481V114.797ZM208.179 118.598C208.172 120.245 209.43 121.387 211.159 121.387C212.875 121.387 214.126 120.245 214.14 118.598C214.126 116.957 212.875 115.809 211.159 115.809C209.43 115.809 208.172 116.957 208.179 118.598ZM209.204 118.598C209.197 117.497 210.024 116.704 211.159 116.711C212.28 116.704 213.101 117.497 213.114 118.598C213.101 119.705 212.28 120.484 211.159 120.471C210.024 120.484 209.197 119.705 209.204 118.598ZM229.41 114.879H222.164V112.158H221.111V115.768H229.41V114.879ZM219.594 117.846H230.723V116.971H219.594V117.846ZM220.988 119.787H228.234V120.963H221.016V123.943H229.725V123.082H222.096V121.783H229.287V118.939H220.988V119.787Z" fill="#999999"/>
<path d="M28.7656 23.6875H26.5469L23.75 25.4688V27.5469L26.3438 25.9219H26.4062V35H28.7656V23.6875ZM35.5145 22.8125C33.3504 22.7969 31.7723 24.0391 31.7801 25.8281C31.7723 27.6016 33.3504 28.8594 35.5145 28.8438C37.6864 28.8594 39.2645 27.6016 39.2645 25.8281C39.2645 24.0391 37.6864 22.7969 35.5145 22.8125ZM30.9051 29.7188L31.1551 31.3438C32.1786 31.3281 33.3583 31.3203 34.6083 31.2656V36.0156H36.5926V31.1484C37.7801 31.0547 38.9833 30.9062 40.1551 30.6719L40.0301 29.2031C36.9989 29.6641 33.4286 29.7109 30.9051 29.7188ZM33.702 25.8281C33.6942 24.9219 34.452 24.3984 35.5145 24.4062C36.6083 24.3984 37.3739 24.9219 37.3739 25.8281C37.3739 26.7188 36.6083 27.2344 35.5145 27.2188C34.452 27.2344 33.6942 26.7188 33.702 25.8281ZM40.8895 36.4375H42.8583V22.2344H40.8895V36.4375Z" fill="#5194FF"/>
<defs>
<clipPath id="clip0_1_491">
<rect width="16" height="16" fill="white" transform="translate(302 77)"/>
</clipPath>
</defs>
</svg>
