<svg width="24" height="24" viewBox="0 0 24 24" fill="none" xmlns="http://www.w3.org/2000/svg">
<path fill-rule="evenodd" clip-rule="evenodd" d="M4.14007 0.630048C3.35102 0.936349 2.68218 1.34733 2.0143 2.01422C1.34739 2.6811 0.936387 3.34992 0.630074 4.1399C0.333454 4.90275 0.130862 5.77512 0.0727008 7.05267C0.0135708 8.33215 0 8.7412 0 12C0 15.2588 0.0135708 15.6679 0.0727008 16.9473C0.130862 18.2249 0.333454 19.0973 0.630074 19.8601C0.936387 20.6491 1.34642 21.3189 2.0143 21.9858C2.68121 22.6527 3.35005 23.0627 4.14007 23.37C4.90391 23.6666 5.77535 23.8691 7.05295 23.9273C8.33345 23.9855 8.74155 24 12.0005 24C15.2604 24 15.6685 23.9864 16.948 23.9273C18.2256 23.8691 19.098 23.6666 19.8609 23.37C20.6499 23.0627 21.3188 22.6527 21.9867 21.9858C22.6536 21.3189 23.0636 20.6491 23.3709 19.8601C23.6675 19.0973 23.8711 18.2249 23.9283 16.9473C23.9864 15.6669 24 15.2588 24 12C24 8.7412 23.9864 8.33215 23.9283 7.05267C23.8701 5.77512 23.6675 4.90275 23.3709 4.1399C23.0636 3.35089 22.6536 2.68207 21.9867 2.01422C21.3198 1.34733 20.6499 0.936349 19.8619 0.630048C19.098 0.333441 18.2256 0.129887 16.949 0.0726979C15.6695 0.0145396 15.2604 0 12.0015 0C8.74155 0 8.33345 0.0135703 7.05295 0.0726979C5.77535 0.130856 4.90294 0.333441 4.14007 0.630048Z" fill="#333333"/>
<path fill-rule="evenodd" clip-rule="evenodd" d="M4.80605 21.5093C4.23656 21.2876 3.83063 21.0236 3.40302 20.597C2.9764 20.1704 2.71137 19.7644 2.49066 19.1949C2.32317 18.7654 2.12513 18.119 2.07094 16.9298C2.01182 15.644 2 15.2578 2 12.0005C2 8.74319 2.01281 8.35795 2.07094 7.07119C2.12513 5.88196 2.32415 5.23661 2.49066 4.80605C2.71235 4.23656 2.9764 3.83063 3.40302 3.40302C3.82965 2.9764 4.23558 2.71137 4.80605 2.49066C5.23563 2.32317 5.88196 2.12513 7.07119 2.07094C8.35696 2.01182 8.74319 2 11.9995 2C15.2568 2 15.6421 2.01281 16.9288 2.07094C18.118 2.12513 18.7634 2.32415 19.194 2.49066C19.7634 2.71137 20.1694 2.9764 20.597 3.40302C21.0236 3.82965 21.2876 4.23656 21.5093 4.80605C21.6768 5.23563 21.8749 5.88196 21.9291 7.07119C21.9882 8.35795 22 8.74319 22 12.0005C22 15.2568 21.9882 15.643 21.9291 16.9298C21.8749 18.119 21.6758 18.7654 21.5093 19.1949C21.2876 19.7644 21.0236 20.1704 20.597 20.597C20.1704 21.0236 19.7634 21.2876 19.194 21.5093C18.7644 21.6768 18.118 21.8749 16.9288 21.9291C15.643 21.9882 15.2568 22 11.9995 22C8.74319 22 8.35696 21.9882 7.07119 21.9291C5.88196 21.8749 5.23563 21.6768 4.80605 21.5093Z" fill="#333333"/>
<path fill-rule="evenodd" clip-rule="evenodd" d="M12 18C15.3138 18 18 15.3138 18 12C18 8.68617 15.3138 6 12 6C8.68617 6 6 8.68617 6 12C6 15.3138 8.68617 18 12 18Z" fill="#F7F7F7"/>
<path d="M12.0005 7.99976C14.2096 7.99976 16.001 9.79103 16.001 12.0001C16.001 14.2091 14.2096 16.0004 12.0005 16.0004C9.79135 16.0004 8.00097 14.2091 8.00097 12.0001C8.00097 9.79103 9.79135 7.99976 12.0005 7.99976Z" fill="#333333"/>
<path d="M18.5 7C19.3277 7 20 6.3275 20 5.4995C20 4.67149 19.3287 4 18.5 4C17.6713 4 17 4.67149 17 5.4995C17 6.3275 17.6713 7 18.5 7Z" fill="#F8F8F8"/>
</svg>
