<svg width="24" height="24" viewBox="0 0 24 24" fill="none" xmlns="http://www.w3.org/2000/svg">
<g clip-path="url(#clip0_1_540)">
<path d="M21.4286 0.0810547H2.57143C1.88944 0.0810547 1.23539 0.350142 0.753154 0.82912C0.270918 1.3081 0 1.95773 0 2.63511L0 21.3648C0 22.0422 0.270918 22.6918 0.753154 23.1708C1.23539 23.6498 1.88944 23.9189 2.57143 23.9189H9.92411V15.8146H6.54911V12H9.92411V9.09261C9.92411 5.78564 11.9063 3.95896 14.9421 3.95896C16.3961 3.95896 17.9164 4.21649 17.9164 4.21649V7.46227H16.2413C14.5907 7.46227 14.0759 8.47964 14.0759 9.52307V12H17.7605L17.1712 15.8146H14.0759V23.9189H21.4286C22.1106 23.9189 22.7646 23.6498 23.2468 23.1708C23.7291 22.6918 24 22.0422 24 21.3648V2.63511C24 1.95773 23.7291 1.3081 23.2468 0.82912C22.7646 0.350142 22.1106 0.0810547 21.4286 0.0810547Z" fill="#333333"/>
</g>
<defs>
<clipPath id="clip0_1_540">
<rect width="24" height="24" fill="white"/>
</clipPath>
</defs>
</svg>
