<?xml version="1.0" encoding="utf-8"?>
<!-- Generator: Adobe Illustrator 27.0.0, SVG Export Plug-In . SVG Version: 6.00 Build 0)  -->
<svg version="1.1" id="레이어_1" xmlns="http://www.w3.org/2000/svg" xmlns:xlink="http://www.w3.org/1999/xlink" x="0px"
	 y="0px" viewBox="0 0 103.28 23.57" style="enable-background:new 0 0 103.28 23.57;" xml:space="preserve">
<style type="text/css">
	.st0{fill:#5194FF;}
</style>
<g>
	<path class="st0" d="M38.86,7.87c-0.17,0-0.32-0.02-0.45-0.06c-0.06,0.69-0.23,1.34-0.51,1.95c-0.28,0.61-0.66,1.14-1.12,1.59
		c-0.52,0.51-1.12,0.91-1.8,1.2c-0.68,0.29-1.42,0.43-2.23,0.43h-1.02c-0.78,0-1.51-0.14-2.19-0.43c-0.69-0.29-1.28-0.69-1.79-1.2
		c-0.51-0.51-0.91-1.11-1.21-1.8c-0.3-0.69-0.45-1.43-0.45-2.21V7.06c0-0.79,0.15-1.52,0.45-2.19c0.3-0.67,0.7-1.28,1.21-1.81
		c0.51-0.51,1.11-0.91,1.79-1.21c0.69-0.3,1.42-0.45,2.19-0.45h1.02c0.81,0,1.55,0.15,2.23,0.45c0.68,0.3,1.28,0.7,1.8,1.21
		c0.68,0.71,1.16,1.53,1.44,2.48c0.2-0.11,0.41-0.17,0.64-0.17h1.17V2.4c0-0.35,0.12-0.65,0.37-0.88c0.25-0.23,0.54-0.35,0.88-0.35
		c0.35,0,0.65,0.12,0.9,0.35c0.25,0.23,0.37,0.53,0.37,0.88v12.95h-2.52V7.87H38.86z M27.2,21.4V15.5c0-0.35,0.12-0.65,0.36-0.88
		c0.24-0.23,0.54-0.35,0.89-0.35c0.35,0,0.65,0.12,0.9,0.35c0.25,0.23,0.37,0.53,0.37,0.88v3.37h12.79v2.52H27.2z M31.74,3.9
		c-0.42,0-0.82,0.08-1.2,0.25c-0.37,0.17-0.7,0.4-0.99,0.7c-0.64,0.57-0.95,1.3-0.95,2.21v0.28c0,0.9,0.32,1.64,0.95,2.21
		c0.28,0.3,0.61,0.53,0.99,0.69c0.37,0.16,0.77,0.24,1.2,0.24h1.02c0.9,0,1.65-0.31,2.25-0.93c0.28-0.28,0.51-0.61,0.68-0.99
		c0.17-0.37,0.25-0.78,0.25-1.22V7.06c0-0.45-0.08-0.86-0.25-1.23c-0.17-0.37-0.4-0.69-0.68-0.98c-0.28-0.3-0.61-0.53-1-0.7
		c-0.38-0.17-0.8-0.25-1.25-0.25H31.74z"/>
</g>
<g>
	<path class="st0" d="M57.43,1.17c-0.34,0-0.64,0.12-0.89,0.35s-0.38,0.53-0.38,0.88v6.4h-1.61c-0.37,0-0.68,0.12-0.92,0.37
		c-0.25,0.25-0.37,0.54-0.37,0.88c0,0.35,0.12,0.65,0.37,0.9c0.25,0.25,0.55,0.37,0.92,0.37h1.61V21.4h2.52v-19
		c0-0.35-0.12-0.65-0.36-0.88C58.08,1.29,57.79,1.17,57.43,1.17z"/>
</g>
<g>
	<path class="st0" d="M61.59,1.52c-0.25-0.23-0.55-0.35-0.89-0.35c-0.34,0-0.63,0.12-0.88,0.35c-0.25,0.23-0.37,0.53-0.37,0.88v19
		h2.52v-19C61.97,2.05,61.84,1.75,61.59,1.52z"/>
</g>
<g>
	<path class="st0" d="M63.69,12.89V1.74h12.06v11.15H63.69z M64.45,21.4V15.5c0-0.35,0.12-0.65,0.37-0.88
		c0.25-0.23,0.54-0.35,0.88-0.35c0.35,0,0.65,0.12,0.9,0.35c0.25,0.23,0.37,0.53,0.37,0.88v3.37h12.79v2.52H64.45z M73.25,10.37
		V4.24h-7.06v6.13H73.25z M77.26,15.8V2.4c0-0.35,0.12-0.65,0.35-0.88s0.53-0.35,0.88-0.35c0.35,0,0.65,0.12,0.9,0.35
		c0.25,0.23,0.37,0.53,0.37,0.88v2.95h0.47c0.35,0,0.65,0.12,0.9,0.37s0.37,0.55,0.37,0.9c0,0.34-0.12,0.63-0.37,0.87
		c-0.25,0.24-0.55,0.36-0.9,0.36h-0.47v7.95H77.26z"/>
</g>
<g>
	<path class="st0" d="M82.18,20.87V1.64h2.52v16.73h10.07v2.5H82.18z M96.04,21.4v-19c0-0.35,0.12-0.65,0.36-0.88
		c0.24-0.23,0.54-0.35,0.89-0.35c0.34,0,0.64,0.12,0.89,0.35c0.25,0.23,0.38,0.53,0.38,0.88v6.36h0.61c0.34,0,0.64,0.12,0.89,0.36
		c0.25,0.24,0.38,0.53,0.38,0.87c0,0.37-0.13,0.67-0.38,0.91c-0.25,0.24-0.55,0.36-0.89,0.36h-0.61V21.4H96.04z"/>
</g>
<g>
	<path class="st0" d="M54.4,19.43c-0.37-0.85-0.71-1.74-1.03-2.65c-0.32-0.92-0.59-1.85-0.82-2.79c-0.27-0.9-0.49-1.79-0.66-2.67
		c-0.17-0.88-0.3-1.73-0.38-2.53C51.39,8,51.3,7.3,51.25,6.67c-0.05-0.63-0.07-1.15-0.07-1.56V4.51H55V1.74H44.84v2.77h3.82V5.1
		v0.33v0.02c-0.01,0.41-0.05,0.9-0.1,1.47c-0.05,0.57-0.12,1.18-0.2,1.85c-0.13,0.81-0.28,1.65-0.45,2.53
		c-0.17,0.88-0.37,1.78-0.61,2.67c-0.24,0.95-0.51,1.88-0.82,2.79c-0.3,0.92-0.65,1.8-1.05,2.65l-0.89,1.98h2.81l0.33-0.72
		c0.47-1.06,0.88-2.17,1.25-3.33c0.37-1.16,0.69-2.32,0.98-3.47c0.27,1.15,0.59,2.3,0.96,3.46c0.37,1.15,0.8,2.26,1.28,3.34
		l0.33,0.72h2.83L54.4,19.43z"/>
</g>
<g>
	<path class="st0" d="M23.84,4.5c0-1.73-1.4-3.13-3.13-3.13c-0.95,0-1.8,0.42-2.37,1.09c-1.47-0.84-3.18-1.32-4.99-1.32
		c-1.82,0-3.52,0.48-4.99,1.32C7.77,1.79,6.92,1.36,5.97,1.36c-1.73,0-3.13,1.4-3.13,3.13c0,1.05,0.51,1.97,1.3,2.54
		c-0.59,1.28-0.91,2.7-0.91,4.2c0,1.63,0.4,3.25,1.15,4.69c0.01,0.02,0.02,0.03,0.03,0.05L5,16.94c0.01,0.02,0.03,0.04,0.04,0.06
		c0.21,0.29,0.36,0.53,0.44,0.68c-0.13,0.51-0.55,1.84-1.59,2.36c-0.67,0.34-0.68,0.86-0.65,1.06c0.02,0.16,0.15,0.7,0.88,0.83
		c0.42,0.08,0.9,0.12,1.41,0.12c1.32,0,2.87-0.3,4.27-1.13c0.24-0.08,0.49-0.08,0.73-0.01c0.97,0.29,1.98,0.44,3,0.44
		c0.01,0,0.03,0,0.04,0l0.38-0.02c0,0,0.01,0,0.01,0c1.25-0.08,2.46-0.38,3.59-0.9c0.45-0.21,0.65-0.74,0.44-1.19
		s-0.74-0.65-1.19-0.44c-0.93,0.43-1.92,0.67-2.94,0.73l-0.35,0.02c-0.84,0-1.67-0.12-2.46-0.36c-0.64-0.19-1.33-0.16-1.96,0.08
		c-0.05,0.02-0.1,0.04-0.14,0.07c-0.84,0.52-1.79,0.78-2.65,0.87c0.77-1.12,0.99-2.36,1-2.43c0.01-0.05,0.01-0.1,0.01-0.15
		c0-0.19,0-0.55-0.79-1.65l-0.55-0.91c-0.62-1.19-0.93-2.48-0.93-3.83c0-4.58,3.73-8.31,8.31-8.31c4.28,0,7.81,3.25,8.26,7.41h-8.22
		c-0.5,0-0.9,0.4-0.9,0.9v4.82c0,0.5,0.4,0.9,0.9,0.9s0.9-0.4,0.9-0.9v-3.92h8.27c0.5,0,0.9-0.4,0.9-0.9c0-1.5-0.33-2.92-0.91-4.19
		C23.33,6.47,23.84,5.55,23.84,4.5z"/>
</g>
</svg>
